<svg viewBox="1 1 101 101" class="logo">
                    <circle stroke="none" cx="51.5" cy="51.5" r="50.5" />
                    <path
    d="M52.28,66.72 C46.12,66.72 40.12,64.72 35.16,62.08 L32.76,72.64 C37.4,75.28 44.6,77.2 52.04,77.2 C65.16,77.2 72.52,70.48 72.52,60.96 C72.52,51.44 64.52,47.92 56.84,45.84 C50.84,44.16 46.28,42.88 46.28,39.6 C46.28,36.88 48.44,35.36 52.84,35.36 C57.8,35.36 64.04,37.12 69,39.76 L71.48,29.28 C66.68,26.64 60.6,24.88 52.76,24.88 C40.36,24.88 33.56,31.04 33.56,40.32 C33.56,50.32 42.36,53.68 49.64,55.68 C56.28,57.52 59.88,58.64 59.88,62 C59.88,65.04 56.76,66.72 52.28,66.72 Z"
  />
                </svg>
